Coordinates
version=1
nRows=13
nColumns=34
inDegrees=yes

Units are S.I. units (second, meters, Newtons, ...)
If the header above contains a line with 'inDegrees', this indicates whether rotational values are in degrees (yes) or radians (no).

endheader
time	pelvis_tilt	pelvis_list	pelvis_rotation	pelvis_tx	pelvis_ty	pelvis_tz	hip_flexion_r	hip_adduction_r	hip_rotation_r	knee_angle_r	ankle_angle_r	subtalar_angle_r	mtp_angle_r	hip_flexion_l	hip_adduction_l	hip_rotation_l	knee_angle_l	ankle_angle_l	subtalar_angle_l	mtp_angle_l	lumbar_extension	lumbar_bending	lumbar_rotation	arm_flex_r	arm_add_r	arm_rot_r	elbow_flex_r	pro_sup_r	arm_flex_l	arm_add_l	arm_rot_l	elbow_flex_l	pro_sup_l
      9.75000000	     -4.74457608	     -8.57216781	      8.38543529	      0.05959719	      1.01688216	     -0.18963810	     43.43096720	     -4.09375301	     -1.54568879	     18.52290586	    -12.51903845	     -8.44904915	      0.00000000	     14.90788842	     -0.35512764	      3.25805529	     18.47493606	      2.43453642	    -16.30877385	      0.00000000	     -5.82360536	      5.06797018	      3.63255580	     78.31478799	      0.56642289	     69.85743417	    119.90337799	     93.15250816	     75.72099949	     -4.81021347	     76.39809813	    121.48127093	     79.93939650
      9.76666670	     -4.94384092	     -8.41141536	      8.18235349	      0.05948988	      1.01650122	     -0.18954998	     43.41561242	     -4.11829366	     -2.01229341	     17.43957451	    -12.85493279	     -8.52225490	      0.00000000	     15.37942586	     -0.11497056	      2.96934901	     19.13120567	      2.04909342	    -16.64461848	      0.00000000	     -6.15269543	      4.68841665	      3.69357608	     78.50705344	      0.42909176	     69.92193019	    119.69751918	     93.19937762	     75.82331654	     -5.04874380	     76.34219954	    121.24054635	     79.97505385
      9.78333330	     -5.23458452	     -8.32045603	      8.22040967	      0.05310316	      1.01671014	     -0.18965719	     43.69600559	     -4.26149200	     -2.58683846	     16.74393760	    -13.88949563	     -9.11070850	      0.00000000	     16.47416026	      0.30371124	      3.58585202	     20.48379685	      0.38539610	    -17.98738694	      0.00000000	     -6.67720702	      4.63066673	      3.78622446	     79.40174976	      0.44189540	     70.71327995	    119.82389307	     93.41793779	     76.15312086	     -5.10807350	     76.09045930	    120.68678145	     80.14380552
      9.80000000	     -5.32139271	     -8.26584696	      8.15966263	      0.05073613	      1.01592894	     -0.18697253	     43.71980854	     -4.16049432	     -3.24423061	     16.18502427	    -14.37030611	     -9.36168436	      0.00000000	     17.26483332	      0.41168485	      3.42591987	     21.81674922	     -0.59147154	    -17.93525834	      0.00000000	     -7.34589511	      4.39860067	      3.88647950	     80.01239388	      0.69653720	     70.67609379	    119.81644346	     93.45858033	     76.67887878	     -5.33583861	     75.80533624	    120.08942818	     80.17063129
      9.81666670	     -5.35485422	     -8.42180390	      8.10783223	      0.04977287	      1.00932446	     -0.18758334	     43.94445356	     -3.90662631	     -3.89114370	     16.02578469	    -14.44728428	     -9.94977737	      0.00000000	     18.15435393	      0.39476308	      3.18068441	     23.51804162	     -1.33788348	    -18.20381507	      0.00000000	     -7.99257371	      4.46178697	      4.05419480	     81.03880081	      0.99863534	     70.64801281	    119.95427240	     93.49868044	     77.34836099	     -5.09654527	     75.48389589	    119.67700924	     80.19717859
      9.83333330	     -5.33901588	     -8.58397269	      8.08095328	      0.04675351	      1.00591489	     -0.18801525	     44.21513459	     -3.68074502	     -4.27502401	     15.80965008	    -14.48048338	    -10.17963070	      0.00000000	     19.28198306	      0.37140135	      3.04449024	     25.52525272	     -1.57581667	    -18.50622126	      0.00000000	     -8.66617323	      4.60713699	      4.52218100	     82.16138957	      0.78390911	     70.51151403	    120.02219279	     93.52003487	     77.93324292	     -4.97447498	     75.27123910	    119.63827773	     80.23725699
      9.85000000	     -5.43364592	     -8.71685639	      8.23665512	      0.04002512	      1.00366020	     -0.18653588	     44.77371756	     -3.61383727	     -4.62611168	     15.72684935	    -14.72076220	    -10.59795001	      0.00000000	     20.76819916	      0.35940170	      3.25901579	     27.60646735	     -1.67283099	    -18.36350729	      0.00000000	     -9.59558978	      4.66020174	      4.83305106	     83.63920701	      0.35887955	     70.76199613	    120.32922069	     93.52572917	     79.15040458	     -4.60119536	     75.32110661	    119.10061085	     80.32455121
      9.86666670	     -5.46286561	     -8.77491875	      8.55055906	      0.04007293	      0.99696911	     -0.18572409	     45.09655076	     -3.59171118	     -4.66099306	     15.75929860	    -14.17229881	    -10.78003839	      0.00000000	     22.00587953	      0.42221648	      3.43767922	     29.64312610	     -1.30864154	    -18.22651058	      0.00000000	    -10.30016219	      4.70159364	      5.15249550	     84.69840381	     -0.12574037	     70.29961911	    119.94038832	     93.48994316	     80.17216015	     -4.24847793	     75.13187411	    119.31800075	     80.35849501
      9.88333330	     -5.61144491	     -8.84244372	      8.69869437	      0.03577257	      0.99149942	     -0.18541011	     45.72437024	     -3.70361271	     -4.96563123	     16.12231589	    -13.80792329	    -11.24714216	      0.00000000	     23.52245690	      0.43266747	      3.37402817	     31.73327422	      0.58128877	    -17.48848735	      0.00000000	    -11.03669996	      4.57606223	      5.47053939	     85.97124345	     -0.48276133	     70.31729642	    120.38863474	     93.37516466	     81.51979171	     -3.97125751	     75.79010458	    119.41337459	     80.47770481
      9.90000000	     -5.67276732	     -8.81518276	      8.85705478	      0.03109017	      0.98587675	     -0.18366562	     46.26583638	     -3.71219946	     -5.15225296	     15.99022463	    -13.37896740	    -11.37785876	      0.00000000	     25.04017001	      0.38380195	      3.07974009	     34.20246211	      0.51174416	    -17.28251219	      0.00000000	    -11.91534406	      4.32269704	      5.57283107	     87.05181427	     -0.58785237	     69.92098914	    119.96616701	     93.31473538	     82.96752484	     -4.17921186	     75.31412707	    118.80530370	     80.46451186
      9.91666670	     -5.74049518	     -8.90434646	      9.23023823	      0.02949890	      0.97688093	     -0.18239556	     46.92781666	     -3.88083986	     -4.95221773	     16.19150128	    -12.66280137	    -11.54270097	      0.00000000	     26.87656986	      0.30413469	      2.78826986	     37.17252446	      1.01088173	    -17.54360722	      0.00000000	    -12.73536355	      4.29357507	      5.63087169	     88.27227075	     -0.63433020	     69.66793265	    119.86960590	     93.25818762	     84.51718463	     -4.16553375	     75.03112950	    118.59145590	     80.46859932
      9.93333330	     -6.19561648	     -9.03297714	      9.54855669	      0.02616613	      0.97086879	     -0.18262432	     48.12928154	     -4.22562683	     -4.38740930	     16.89290086	    -11.76227461	    -11.40849910	      0.00000000	     29.16256856	      0.29428178	      2.78242885	     39.80711328	      3.45181792	    -17.40888481	      0.00000000	    -13.10898783	      4.22115933	      5.48456364	     89.54105973	     -0.77842290	     69.98311033	    120.39137349	     93.08625193	     86.04512444	     -3.91853353	     75.73092713	    118.83420766	     80.52070902
      9.95000000	     -6.56816554	     -8.95651454	      9.84425606	      0.02137623	      0.96508131	     -0.18157374	     49.07543210	     -4.67931375	     -4.22310715	     17.04125099	    -11.23491920	    -11.49282127	      0.00000000	     30.92979440	      0.53553580	      2.70718649	     41.91604558	      5.06575830	    -17.61788206	      0.00000000	    -13.72252248	      3.97674446	      5.45888114	     90.72881044	     -0.70544017	     69.92334003	    120.45220093	     92.96524345	     87.35331556	     -3.84772555	     75.75806823	    118.69455574	     80.52494360
